<svg color="#8FCF9D" xmlns="http://www.w3.org/2000/svg" width="1600" height="820" viewBox="0 0 1600 820">
<defs>
  <filter id="rgh" x="-5%" y="-5%" width="110%" height="110%">
    <feTurbulence type="fractalNoise" baseFrequency="0.011 0.017" numOctaves="2" seed="11" result="n"></feTurbulence>
    <feDisplacementMap in="SourceGraphic" in2="n" scale="7"></feDisplacementMap>
  </filter>
  <filter id="rgh2" x="-5%" y="-5%" width="110%" height="110%">
    <feTurbulence type="fractalNoise" baseFrequency="0.013 0.019" numOctaves="2" seed="29" result="n"></feTurbulence>
    <feDisplacementMap in="SourceGraphic" in2="n" scale="10"></feDisplacementMap>
  </filter>
  <filter id="rgh3" x="-5%" y="-5%" width="110%" height="110%">
    <feTurbulence type="fractalNoise" baseFrequency="0.009 0.014" numOctaves="2" seed="53" result="n"></feTurbulence>
    <feDisplacementMap in="SourceGraphic" in2="n" scale="5"></feDisplacementMap>
  </filter>
  <pattern id="hL" width="12" height="12" patternUnits="userSpaceOnUse" patternTransform="rotate(-38)">
    <line x1="0" y1="0" x2="0" y2="12" stroke="currentColor" stroke-width="2"></line>
  </pattern>
  <pattern id="hD" width="8" height="8" patternUnits="userSpaceOnUse" patternTransform="rotate(-38)">
    <line x1="0" y1="0" x2="0" y2="8" stroke="currentColor" stroke-width="2.6"></line>
  </pattern>
  <clipPath id="glassClip">
    <path d="M 610 349 L 700 213 Q 884 197 1152 197 L 1348 205 Q 1370 209 1373 234 Q 1373 280 1369 314 L 1162 332 L 1152 344 L 610 349 Z"></path>
  </clipPath>
  <g id="wheel">
    <circle r="116" fill="url(#hD)" fill-opacity="0.5"></circle>
    <circle r="116" fill="none" stroke="currentColor" stroke-width="5"></circle>
    <path d="M -76 -66 A 100 100 0 0 1 76 -66" fill="none" stroke="currentColor" stroke-width="3"></path>
    <circle r="68" fill="none" stroke="currentColor" stroke-width="4.5"></circle>
    <g stroke="currentColor" stroke-width="5" stroke-linecap="round">
      <g id="spk"><path d="M 13 -9 L 60 -24 M 13 9 L 60 24" fill="none"></path></g>
      <use href="#spk" transform="rotate(60)"></use>
      <use href="#spk" transform="rotate(120)"></use>
      <use href="#spk" transform="rotate(180)"></use>
      <use href="#spk" transform="rotate(240)"></use>
      <use href="#spk" transform="rotate(300)"></use>
    </g>
    <circle r="16" fill="none" stroke="currentColor" stroke-width="3.5"></circle>
  </g>
</defs>


<g stroke="currentColor" stroke-width="2" fill="none" opacity="0.34" filter="url(#rgh2)" stroke-linecap="round">
  <line x1="100" y1="584" x2="1520" y2="584"></line>
  <line x1="90" y1="700" x2="1510" y2="700"></line>
  <line x1="130" y1="706" x2="1470" y2="703" stroke-width="1.4"></line>
  <circle cx="408" cy="584" r="128" stroke-width="1.8"></circle>
  <circle cx="414" cy="586" r="121" stroke-width="1.2"></circle>
  <circle cx="1160" cy="584" r="128" stroke-width="1.8"></circle>
  <circle cx="1154" cy="582" r="121" stroke-width="1.2"></circle>
  <line x1="408" y1="446" x2="408" y2="732" stroke-width="1.4"></line>
  <line x1="1160" y1="446" x2="1160" y2="732" stroke-width="1.4"></line>
  <line x1="60" y1="358" x2="1540" y2="322" stroke-width="1.4"></line>
  <line x1="656" y1="196" x2="508" y2="230" stroke-width="1.6"></line>
  <line x1="1400" y1="192" x2="1548" y2="184" stroke-width="1.6"></line>
  <line x1="150" y1="440" x2="118" y2="556" stroke-width="1.6"></line>
  <line x1="408" y1="748" x2="1160" y2="748"></line>
  <path d="M 426 741 L 408 748 L 426 755"></path>
  <path d="M 1142 741 L 1160 748 L 1142 755"></path>
  <line x1="408" y1="736" x2="408" y2="760" stroke-width="1.4"></line>
  <line x1="1160" y1="736" x2="1160" y2="760" stroke-width="1.4"></line>
</g>


<g filter="url(#rgh2)">
  <rect x="240" y="698" width="1180" height="20" fill="url(#hD)" opacity="0.7"></rect>
  <rect x="308" y="694" width="200" height="14" fill="url(#hD)" opacity="0.9"></rect>
  <rect x="1060" y="694" width="200" height="14" fill="url(#hD)" opacity="0.9"></rect>
</g>


<g filter="url(#rgh3)">
  <path d="M 210 552 L 186 538 Q 170 524 168 478 L 166 434 Q 166 402 190 394 Q 320 378 470 366 Q 560 358 600 350 L 700 210 Q 884 188 1152 188 L 1338 196 L 1408 190 L 1416 216 Q 1428 246 1431 320 L 1427 468 Q 1424 538 1410 556 L 1388 564 L 1314 564 A 154 138 0 0 0 1006 564 L 562 564 A 154 138 0 0 0 254 564 L 210 552 Z" fill="none"></path>
</g>


<g filter="url(#rgh3)">
  <path d="M 610 349 L 700 213 Q 884 197 1152 197 L 1348 205 Q 1370 209 1373 234 Q 1373 280 1369 314 L 1162 332 L 1152 344 L 610 349 Z" fill="currentColor" opacity="0.08"></path>
  <g clip-path="url(#glassClip)">
    <rect x="590" y="190" width="800" height="56" fill="url(#hD)" opacity="0.5"></rect>
    <path d="M 790 190 L 892 190 L 712 355 L 646 355 Z" fill="currentColor" opacity="0.14"></path>
    <path d="M 940 190 L 978 190 L 800 355 L 772 355 Z" fill="currentColor" opacity="0.1"></path>
    <rect x="590" y="298" width="800" height="58" fill="url(#hL)" opacity="0.4"></rect>
  </g>
</g>


<g filter="url(#rgh2)">
  <path d="M 618 564 L 618 470 Q 830 460 1004 466 L 1004 564 Z" fill="url(#hL)" opacity="0.5"></path>
  <path d="M 174 430 L 296 414 L 292 544 L 208 548 Z" fill="url(#hL)" opacity="0.55"></path>
  <path d="M 1320 380 L 1424 372 L 1420 544 L 1330 548 Z" fill="url(#hL)" opacity="0.45"></path>
  <path d="M 606 356 Q 800 344 1142 348 L 1142 362 Q 800 358 606 370 Z" fill="url(#hD)" opacity="0.32"></path>
  <path d="M 712 214 Q 884 196 1150 196 L 1340 204 L 1338 216 Q 884 208 716 226 Z" fill="url(#hL)" opacity="0.35"></path>
  <path d="M 292 558 A 134 118 0 0 1 526 558" fill="none" stroke="url(#hD)" stroke-width="32" opacity="0.55"></path>
  <path d="M 1044 558 A 134 118 0 0 1 1278 558" fill="none" stroke="url(#hD)" stroke-width="32" opacity="0.55"></path>
  <line x1="622" y1="562" x2="1002" y2="562" stroke="currentColor" stroke-width="10" opacity="0.6"></line>
</g>


<g filter="url(#rgh)">
  <use href="#wheel" transform="translate(408,584)"></use>
  <use href="#wheel" transform="translate(1160,584)"></use>
</g>


<g stroke="currentColor" fill="none" stroke-linecap="round" stroke-linejoin="round" filter="url(#rgh)">
  <path d="M 210 552 L 186 538 Q 170 524 168 478 L 166 434 Q 166 402 190 394 Q 320 378 470 366 Q 560 358 600 350 L 700 210 Q 884 188 1152 188 L 1338 196 L 1408 190 L 1416 216 Q 1428 246 1431 320 L 1427 468 Q 1424 538 1410 556 L 1388 564 L 1314 564 A 154 138 0 0 0 1006 564 L 562 564 A 154 138 0 0 0 254 564 L 210 552 Z" stroke-width="7"></path>
  <path d="M 610 349 L 700 213 Q 884 197 1152 197 L 1348 205 Q 1370 209 1373 234 Q 1373 280 1369 314 L 1162 332 L 1152 344 L 610 349 Z" stroke-width="4.5"></path>
  <path d="M 620 354 L 1150 350 L 1164 338 L 1366 320" stroke-width="2.2" stroke="currentColor"></path>
  <line x1="870" y1="200" x2="880" y2="347" stroke-width="4"></line>
  <line x1="888" y1="200" x2="898" y2="346" stroke-width="2.4"></line>
  <line x1="1134" y1="198" x2="1146" y2="344" stroke-width="4"></line>
  <line x1="1154" y1="198" x2="1162" y2="332" stroke-width="2.4"></line>
  <line x1="1298" y1="202" x2="1304" y2="324" stroke-width="3.5"></line>
  <path d="M 238 398 Q 430 380 586 360" stroke-width="3.5"></path>
  <path d="M 198 402 Q 262 392 332 386 L 326 410 Q 260 414 208 422 Z" stroke-width="3.5" fill="none"></path>
  <path d="M 218 408 L 316 398" stroke-width="2"></path>
  <path d="M 176 490 L 288 487" stroke-width="3"></path>
  <rect x="194" y="452" width="50" height="26" rx="6" stroke-width="2.6"></rect>
  <path d="M 706 362 L 701 558" stroke-width="3.2"></path>
  <path d="M 934 366 L 929 560" stroke-width="3.2"></path>
  <path d="M 1158 368 L 1155 448" stroke-width="3.2"></path>
  <rect x="760" y="390" width="58" height="13" rx="6" stroke-width="3"></rect>
  <rect x="990" y="392" width="58" height="13" rx="6" stroke-width="3"></rect>
  <rect x="1208" y="396" width="58" height="13" rx="6" stroke-width="3"></rect>
  <path d="M 610 336 L 598 318 L 644 310 L 656 334 L 626 344 Z" stroke-width="3.5" fill="none"></path>
  <path d="M 622 344 L 612 352" stroke-width="3"></path>
  <rect x="614" y="566" width="396" height="14" rx="7" stroke-width="3" fill="currentColor" fill-opacity="0.9"></rect>
  <path d="M 722 176 L 1280 176" stroke-width="4.5"></path>
  <path d="M 734 176 L 744 190 M 992 176 L 998 189 M 1264 176 L 1256 192" stroke-width="3"></path>
  <path d="M 1308 186 Q 1320 172 1336 184 L 1320 190 Z" stroke-width="3" fill="currentColor" fill-opacity="0.9"></path>
  <path d="M 1342 214 L 1406 206" stroke-width="3"></path>
  <path d="M 1398 298 L 1426 290 L 1428 344 L 1402 350 Z" stroke-width="3.2" fill="none"></path>
  <path d="M 1406 308 L 1420 304 M 1406 326 L 1420 322" stroke-width="2"></path>
  <rect x="1338" y="418" width="32" height="38" rx="6" stroke-width="2.6"></rect>
  <path d="M 240 548 A 164 148 0 0 1 576 548" stroke-width="3" opacity="0.7"></path>
  <path d="M 992 548 A 164 148 0 0 1 1328 548" stroke-width="3" opacity="0.7"></path>
</g>


<g stroke="currentColor" fill="none" stroke-linecap="round" opacity="0.45" filter="url(#rgh2)">
  <path d="M 210 552 L 186 538 Q 170 524 168 478 L 166 434 Q 166 402 190 394 Q 320 378 470 366 Q 560 358 600 350 L 700 210 Q 884 188 1152 188 L 1338 196 L 1408 190 L 1416 216 Q 1428 246 1431 320 L 1427 468 Q 1424 538 1410 556" stroke-width="2.2"></path>
  <path d="M 610 349 L 700 213 Q 884 197 1152 197 L 1348 205" stroke-width="1.8"></path>
</g>
</svg>