<svg color="#8FCF9D" xmlns="http://www.w3.org/2000/svg" width="1600" height="820" viewBox="0 0 1600 820">
<style>
  @keyframes h06spin { to { transform: rotate(-360deg); } }
  .h06w { transform-box: view-box; animation: h06spin 1.05s linear infinite; }
  @media (prefers-reduced-motion: reduce) { .h06w { animation: none; } }
</style>

<defs>
  <filter id="rgh" x="-5%" y="-5%" width="110%" height="110%">
    <feTurbulence type="fractalNoise" baseFrequency="0.011 0.017" numOctaves="2" seed="43" result="n"></feTurbulence>
    <feDisplacementMap in="SourceGraphic" in2="n" scale="7"></feDisplacementMap>
  </filter>
  <filter id="rgh2" x="-5%" y="-5%" width="110%" height="110%">
    <feTurbulence type="fractalNoise" baseFrequency="0.013 0.019" numOctaves="2" seed="47" result="n"></feTurbulence>
    <feDisplacementMap in="SourceGraphic" in2="n" scale="10"></feDisplacementMap>
  </filter>
  <filter id="rgh3" x="-5%" y="-5%" width="110%" height="110%">
    <feTurbulence type="fractalNoise" baseFrequency="0.009 0.014" numOctaves="2" seed="67" result="n"></feTurbulence>
    <feDisplacementMap in="SourceGraphic" in2="n" scale="5"></feDisplacementMap>
  </filter>
  <pattern id="hL" width="12" height="12" patternUnits="userSpaceOnUse" patternTransform="rotate(-38)">
    <line x1="0" y1="0" x2="0" y2="12" stroke="currentColor" stroke-width="2"></line>
  </pattern>
  <pattern id="hD" width="8" height="8" patternUnits="userSpaceOnUse" patternTransform="rotate(-38)">
    <line x1="0" y1="0" x2="0" y2="8" stroke="currentColor" stroke-width="2.6"></line>
  </pattern>
  <clipPath id="glassClip">
    <path d="M 592 358 L 672 236 Q 730 226 800 224 L 996 224 Q 1012 228 1014 250 L 1016 296 Q 1012 316 990 322 L 930 344 Q 760 354 592 358 Z"></path>
  </clipPath>
  <g id="wheel">
    <circle r="110" fill="url(#hD)" fill-opacity="0.5"></circle>
    <circle r="110" fill="none" stroke="currentColor" stroke-width="5"></circle>
    <path d="M -72 -62 A 94 94 0 0 1 72 -62" fill="none" stroke="currentColor" stroke-width="3"></path>
    <circle r="64" fill="none" stroke="currentColor" stroke-width="4.5"></circle>
    <g stroke="currentColor" stroke-width="7" stroke-linecap="round">
      <g id="spk"><path d="M 14 -9 L 56 -22 M 14 9 L 56 22" fill="none"></path></g>
      <use href="#spk" transform="rotate(60)"></use>
      <use href="#spk" transform="rotate(120)"></use>
      <use href="#spk" transform="rotate(180)"></use>
      <use href="#spk" transform="rotate(240)"></use>
      <use href="#spk" transform="rotate(300)"></use>
    </g>
    <circle r="15" fill="none" stroke="currentColor" stroke-width="3"></circle>
  </g>
</defs>


<g stroke="currentColor" stroke-width="2" fill="none" opacity="0.34" filter="url(#rgh2)" stroke-linecap="round">
  <line x1="100" y1="590" x2="1540" y2="590"></line>
  <line x1="90" y1="700" x2="1540" y2="700"></line>
  <line x1="130" y1="706" x2="1500" y2="703" stroke-width="1.4"></line>
  <circle cx="400" cy="590" r="122" stroke-width="1.8"></circle>
  <circle cx="406" cy="592" r="115" stroke-width="1.2"></circle>
  <circle cx="1230" cy="590" r="122" stroke-width="1.8"></circle>
  <circle cx="1224" cy="588" r="115" stroke-width="1.2"></circle>
  <line x1="400" y1="456" x2="400" y2="732" stroke-width="1.4"></line>
  <line x1="1230" y1="456" x2="1230" y2="732" stroke-width="1.4"></line>
  <line x1="60" y1="364" x2="1560" y2="336" stroke-width="1.4"></line>
  <line x1="632" y1="218" x2="484" y2="254" stroke-width="1.6"></line>
  <line x1="1480" y1="388" x2="1580" y2="382" stroke-width="1.6"></line>
  <line x1="146" y1="440" x2="114" y2="548" stroke-width="1.6"></line>
  <line x1="400" y1="748" x2="1230" y2="748"></line>
  <path d="M 418 741 L 400 748 L 418 755"></path>
  <path d="M 1212 741 L 1230 748 L 1212 755"></path>
  <line x1="400" y1="736" x2="400" y2="760" stroke-width="1.4"></line>
  <line x1="1230" y1="736" x2="1230" y2="760" stroke-width="1.4"></line>
</g>


<g filter="url(#rgh2)">
  <rect x="240" y="698" width="1280" height="20" fill="url(#hD)" opacity="0.7"></rect>
  <rect x="302" y="694" width="196" height="14" fill="url(#hD)" opacity="0.9"></rect>
  <rect x="1132" y="694" width="196" height="14" fill="url(#hD)" opacity="0.9"></rect>
</g>


<g filter="url(#rgh3)">
  <path d="M 204 546 L 182 532 Q 168 520 166 482 L 164 432 Q 164 402 184 394 Q 300 382 450 372 Q 545 366 582 360 L 664 232 Q 730 220 800 218 L 1004 218 Q 1030 224 1036 248 L 1050 372 L 1510 366 L 1518 372 L 1526 552 L 1508 558 L 1380 558 A 150 132 0 0 0 1080 558 L 550 558 A 150 132 0 0 0 250 558 Z" fill="none"></path>
</g>


<g filter="url(#rgh3)">
  <path d="M 592 358 L 672 236 Q 730 226 800 224 L 996 224 Q 1012 228 1014 250 L 1016 296 Q 1012 316 990 322 L 930 344 Q 760 354 592 358 Z" fill="currentColor" opacity="0.08"></path>
  <g clip-path="url(#glassClip)">
    <rect x="582" y="212" width="470" height="50" fill="url(#hD)" opacity="0.5"></rect>
    <path d="M 742 212 L 836 212 L 682 362 L 622 362 Z" fill="currentColor" opacity="0.14"></path>
    <path d="M 884 212 L 918 212 L 764 362 L 738 362 Z" fill="currentColor" opacity="0.1"></path>
    <rect x="582" y="308" width="470" height="54" fill="url(#hL)" opacity="0.4"></rect>
  </g>
</g>


<g filter="url(#rgh2)">
  <path d="M 610 558 L 610 470 Q 800 462 1076 468 L 1076 558 Z" fill="url(#hL)" opacity="0.5"></path>
  <path d="M 170 428 L 290 414 L 286 538 L 204 542 Z" fill="url(#hL)" opacity="0.55"></path>
  <path d="M 1086 384 L 1504 378 L 1502 448 L 1090 454 Z" fill="url(#hL)" opacity="0.45"></path>
  <path d="M 598 364 Q 760 352 1000 350 L 1000 364 Q 760 366 598 378 Z" fill="url(#hD)" opacity="0.32"></path>
  <path d="M 686 236 Q 800 222 1000 222 L 1002 234 Q 800 234 690 248 Z" fill="url(#hL)" opacity="0.35"></path>
  <path d="M 286 554 A 130 114 0 0 1 514 554" fill="none" stroke="url(#hD)" stroke-width="30" opacity="0.55"></path>
  <path d="M 1116 554 A 130 114 0 0 1 1344 554" fill="none" stroke="url(#hD)" stroke-width="30" opacity="0.55"></path>
  <line x1="614" y1="556" x2="1078" y2="556" stroke="currentColor" stroke-width="10" opacity="0.6"></line>
</g>


<g filter="url(#rgh)">
  <g class="h06w" style="transform-origin:400px 590px"><use href="#wheel" transform="translate(400,590)"></use></g>
  <g class="h06w" style="transform-origin:1230px 590px"><use href="#wheel" transform="translate(1230,590)"></use></g>
</g>


<g stroke="currentColor" fill="none" stroke-linecap="round" stroke-linejoin="round" filter="url(#rgh)">
  <path d="M 204 546 L 182 532 Q 168 520 166 482 L 164 432 Q 164 402 184 394 Q 300 382 450 372 Q 545 366 582 360 L 664 232 Q 730 220 800 218 L 1004 218 Q 1030 224 1036 248 L 1050 372 L 1510 366 L 1518 372 L 1526 552 L 1508 558 L 1380 558 A 150 132 0 0 0 1080 558 L 550 558 A 150 132 0 0 0 250 558 Z" stroke-width="7"></path>
  <path d="M 592 358 L 672 236 Q 730 226 800 224 L 996 224 Q 1012 228 1014 250 L 1016 296 Q 1012 316 990 322 L 930 344 Q 760 354 592 358 Z" stroke-width="4.5"></path>
  <path d="M 602 362 L 928 348 L 992 326" stroke-width="2.6"></path>
  <line x1="852" y1="228" x2="862" y2="352" stroke-width="4"></line>
  <line x1="870" y1="228" x2="878" y2="350" stroke-width="2.4"></line>
  <line x1="1002" y1="226" x2="1014" y2="326" stroke-width="3.5"></line>
  <path d="M 624 222 L 602 178" stroke-width="3"></path>
  <path d="M 234 398 Q 420 382 578 366" stroke-width="3.5"></path>
  <path d="M 190 402 Q 260 392 336 386 L 330 408 Q 258 412 200 420 Z" stroke-width="3.5" fill="none"></path>
  <path d="M 208 410 L 320 398" stroke-width="2"></path>
  <path d="M 176 406 L 177 470 M 188 404 L 189 468" stroke-width="2.4"></path>
  <path d="M 172 488 L 282 486" stroke-width="3"></path>
  <rect x="190" y="452" width="46" height="24" rx="6" stroke-width="2.6"></rect>
  <path d="M 688 366 L 684 554" stroke-width="3.2"></path>
  <path d="M 908 366 L 904 554" stroke-width="3.2"></path>
  <rect x="752" y="390" width="56" height="13" rx="6" stroke-width="3"></rect>
  <rect x="966" y="392" width="56" height="13" rx="6" stroke-width="3"></rect>
  <path d="M 594 344 L 582 326 L 628 318 L 640 342 L 610 352 Z" stroke-width="3.5" fill="none"></path>
  <path d="M 606 352 L 596 360" stroke-width="3"></path>
  <rect x="604" y="560" width="382" height="13" rx="7" stroke-width="3" fill="currentColor" fill-opacity="0.9"></rect>
  
  <path d="M 1078 398 L 1506 392" stroke-width="4"></path>
  <path d="M 1090 412 L 1496 407" stroke-width="2.2"></path>
  <path d="M 1092 402 L 1090 470" stroke-width="2.4"></path>
  
  <path d="M 1494 382 L 1520 378 L 1522 436 L 1498 440 Z" stroke-width="3.2" fill="none"></path>
  <path d="M 1501 396 L 1515 393 M 1501 412 L 1515 409" stroke-width="2"></path>
  <rect x="1492" y="524" width="46" height="20" rx="5" stroke-width="3" fill="currentColor" fill-opacity="0.9"></rect>
  
  <path d="M 544 534 L 576 536 L 580 572 L 548 570 Z" stroke-width="3" fill="currentColor" fill-opacity="0.9"></path>
  <path d="M 1374 534 L 1406 536 L 1410 572 L 1378 570 Z" stroke-width="3" fill="currentColor" fill-opacity="0.9"></path>
  
  <path d="M 236 542 A 160 144 0 0 1 564 542" stroke-width="3" opacity="0.7"></path>
  <path d="M 1066 542 A 160 144 0 0 1 1394 542" stroke-width="3" opacity="0.7"></path>
</g>


<g stroke="currentColor" fill="none" stroke-linecap="round" opacity="0.45" filter="url(#rgh2)">
  <path d="M 204 546 L 182 532 Q 168 520 166 482 L 164 432 Q 164 402 184 394 Q 300 382 450 372 Q 545 366 582 360 L 664 232 Q 730 220 800 218 L 1004 218 Q 1030 224 1036 248 L 1050 372 L 1510 366 L 1518 372 L 1526 552" stroke-width="2.2"></path>
  <path d="M 592 358 L 672 236 Q 730 226 800 224 L 996 224" stroke-width="1.8"></path>
</g>
</svg>