<svg color="#D6B98C" xmlns="http://www.w3.org/2000/svg" width="1600" height="820" viewBox="0 0 1600 820">
<defs>
  <filter id="rgh" x="-5%" y="-5%" width="110%" height="110%"><feTurbulence type="fractalNoise" baseFrequency="0.011 0.017" numOctaves="2" seed="83" result="n"></feTurbulence><feDisplacementMap in="SourceGraphic" in2="n" scale="7"></feDisplacementMap></filter>
  <filter id="rgh2" x="-5%" y="-5%" width="110%" height="110%"><feTurbulence type="fractalNoise" baseFrequency="0.013 0.019" numOctaves="2" seed="87" result="n"></feTurbulence><feDisplacementMap in="SourceGraphic" in2="n" scale="10"></feDisplacementMap></filter>
  <filter id="rgh3" x="-5%" y="-5%" width="110%" height="110%"><feTurbulence type="fractalNoise" baseFrequency="0.009 0.014" numOctaves="2" seed="92" result="n"></feTurbulence><feDisplacementMap in="SourceGraphic" in2="n" scale="5"></feDisplacementMap></filter>
  <pattern id="hL" width="12" height="12" patternUnits="userSpaceOnUse" patternTransform="rotate(-38)"><line x1="0" y1="0" x2="0" y2="12" stroke="currentColor" stroke-width="2"></line></pattern>
  <pattern id="hD" width="8" height="8" patternUnits="userSpaceOnUse" patternTransform="rotate(-38)"><line x1="0" y1="0" x2="0" y2="8" stroke="currentColor" stroke-width="2.6"></line></pattern>
  <clipPath id="glassClip"><path d="M 600 344 L 696 210 Q 880 194 1128 194 L 1318 202 Q 1340 206 1342 232 L 1338 296 L 1190 310 L 1120 330 L 1100 342 L 600 344 Z"></path></clipPath>
  <g id="wheel">
    <circle r="114" fill="url(#hD)" fill-opacity="0.5"></circle>
    <circle r="114" fill="none" stroke="currentColor" stroke-width="5"></circle>
    <path d="M -74 -62 A 98 98 0 0 1 74 -62" fill="none" stroke="currentColor" stroke-width="3" opacity="0.6"></path>
    <circle r="66" fill="none" stroke="currentColor" stroke-width="4.5"></circle>
    <g stroke="currentColor" stroke-width="3.6" stroke-linecap="round">
      <g id="spk"><path d="M 13 -8 L 60 -20.8 M 13 8 L 60 20.8" fill="none"></path></g><use href="#spk" transform="rotate(60)"></use><use href="#spk" transform="rotate(120)"></use><use href="#spk" transform="rotate(180)"></use><use href="#spk" transform="rotate(240)"></use><use href="#spk" transform="rotate(300)"></use></g>
    <circle r="15" fill="none" stroke="currentColor" stroke-width="3"></circle>
  </g>
</defs>
<g stroke="currentColor" stroke-width="2" fill="none" opacity="0.34" filter="url(#rgh2)" stroke-linecap="round">
  <line x1="100" y1="586" x2="1520" y2="586"></line>
  <line x1="90" y1="700" x2="1520" y2="700"></line>
  <line x1="130" y1="706" x2="1480" y2="703" stroke-width="1.4"></line>
  <circle cx="400" cy="586" r="126" stroke-width="1.8"></circle><circle cx="406" cy="588" r="119" stroke-width="1.2"></circle>
  <circle cx="1180" cy="586" r="126" stroke-width="1.8"></circle><circle cx="1174" cy="584" r="119" stroke-width="1.2"></circle>
  <line x1="400" y1="456" x2="400" y2="732" stroke-width="1.4"></line>
  <line x1="1180" y1="456" x2="1180" y2="732" stroke-width="1.4"></line>
  <line x1="60" y1="350" x2="1540" y2="300" stroke-width="1.4"></line>
  
  <line x1="400" y1="748" x2="1180" y2="748"></line>
  <path d="M 418 741 L 400 748 L 418 755"></path><path d="M 1162 741 L 1180 748 L 1162 755"></path>
  <line x1="400" y1="736" x2="400" y2="760" stroke-width="1.4"></line><line x1="1180" y1="736" x2="1180" y2="760" stroke-width="1.4"></line>
</g>
<g filter="url(#rgh2)">
  <rect x="240" y="698" width="1110" height="20" fill="url(#hD)" opacity="0.7"></rect>
  <rect x="300" y="694" width="200" height="14" fill="url(#hD)" opacity="0.9"></rect>
  <rect x="1080" y="694" width="200" height="14" fill="url(#hD)" opacity="0.9"></rect>
</g>
<g filter="url(#rgh3)">
  <path d="M 600 344 L 696 210 Q 880 194 1128 194 L 1318 202 Q 1340 206 1342 232 L 1338 296 L 1190 310 L 1120 330 L 1100 342 L 600 344 Z" fill="currentColor" opacity="0.08"></path>
  <g clip-path="url(#glassClip)"><rect x="500" y="188" width="920" height="52" fill="url(#hD)" opacity="0.5"></rect>
    <path d="M 790 188 L 886 188 L 620 348 L 558 348 Z" fill="currentColor" opacity="0.14"></path>
    <path d="M 940 188 L 976 188 L 774 348 L 748 348 Z" fill="currentColor" opacity="0.1"></path>
    <rect x="500" y="290" width="920" height="58" fill="url(#hL)" opacity="0.4"></rect></g>
</g>
<g filter="url(#rgh2)"><path d="M 616 564 L 616 468 Q 830 458 1024 464 L 1024 564 Z" fill="url(#hL)" opacity="0.5"></path>
  <path d="M 170 418 L 290 404 L 286 534 L 202 538 Z" fill="url(#hL)" opacity="0.55"></path>
  <path d="M 1296 374 L 1408 366 L 1404 540 L 1306 546 Z" fill="url(#hL)" opacity="0.45"></path>
  <path d="M 606 350 Q 800 338 1096 340 L 1096 354 Q 800 352 606 364 Z" fill="url(#hD)" opacity="0.32"></path>
  <path d="M 288 558 A 130 114 0 0 1 512 558" fill="none" stroke="url(#hD)" stroke-width="30" opacity="0.55"></path>
  <path d="M 1068 558 A 130 114 0 0 1 1292 558" fill="none" stroke="url(#hD)" stroke-width="30" opacity="0.55"></path>
  <line x1="618" y1="560" x2="1026" y2="560" stroke="currentColor" stroke-width="10" opacity="0.6"></line></g>
<g filter="url(#rgh)"><use href="#wheel" transform="translate(400,586)"></use><use href="#wheel" transform="translate(1180,586)"></use></g>
<g stroke="currentColor" fill="none" stroke-linecap="round" stroke-linejoin="round" filter="url(#rgh)">
  <path d="M 204 554 L 182 538 Q 166 526 164 478 L 162 426 Q 162 396 184 388 Q 320 374 470 364 Q 550 354 590 346 L 690 204 Q 880 186 1130 186 L 1334 194 L 1392 188 L 1400 214 Q 1412 246 1414 322 L 1410 464 Q 1407 534 1394 552 L 1372 560 L 1330 564 A 150 132 0 0 0 1030 564 L 550 564 A 150 132 0 0 0 250 564 Z" stroke-width="7"></path>
  <path d="M 600 344 L 696 210 Q 880 194 1128 194 L 1318 202 Q 1340 206 1342 232 L 1338 296 L 1190 310 L 1120 330 L 1100 342 L 600 344 Z" stroke-width="4.5"></path>
  <path d="M 612 350 L 1096 348 L 1116 334 L 1334 300" stroke-width="3" opacity="0.85"></path>
  <line x1="856" y1="198" x2="866" y2="342" stroke-width="4"></line><line x1="874" y1="198" x2="884" y2="341" stroke-width="2.4"></line>
  <line x1="1094" y1="196" x2="1104" y2="334" stroke-width="4"></line><line x1="1114" y1="196" x2="1120" y2="328" stroke-width="2.4"></line>
  <line x1="1252" y1="200" x2="1258" y2="304" stroke-width="3.5"></line>
  <path d="M 232 392 Q 420 374 580 354" stroke-width="3.5"></path>
  <path d="M 192 396 Q 266 386 344 380 L 338 398 Q 262 404 202 412 Z" stroke-width="3.5"></path><path d="M 212 402 L 330 390" stroke-width="2"></path>
  <path d="M 172 402 L 173 466 M 184 400 L 185 464" stroke-width="2.4"></path>
  <path d="M 170 480 L 278 478" stroke-width="3"></path><rect x="186" y="444" width="46" height="24" rx="6" stroke-width="2.6"></rect>
  <path d="M 700 356 L 696 554" stroke-width="3.2"></path><path d="M 930 360 L 926 556" stroke-width="3.2"></path><path d="M 1150 362 L 1147 444" stroke-width="3.2"></path>
  <path d="M 756 388 L 816 386" stroke-width="4"></path><path d="M 986 390 L 1046 388" stroke-width="4"></path><path d="M 1202 394 L 1258 392" stroke-width="4"></path>
  <path d="M 598 328 L 586 310 L 632 302 L 644 326 L 614 336 Z" stroke-width="3.5"></path><path d="M 610 336 L 600 344" stroke-width="3"></path>
  <rect x="606" y="566" width="404" height="13" rx="7" stroke-width="3" fill="currentColor" fill-opacity="0.9"></rect>
  <path d="M 716 174 L 1264 174" stroke-width="4.5"></path><path d="M 728 174 L 738 188 M 986 174 L 992 187 M 1248 174 L 1240 190" stroke-width="3"></path>
  <path d="M 1290 184 Q 1302 170 1318 182 L 1302 188 Z" stroke-width="3" fill="currentColor" fill-opacity="0.9"></path>
  <path d="M 1330 212 L 1390 204" stroke-width="3"></path>
  <path d="M 1380 298 L 1410 290 L 1412 336 L 1384 342 Z" stroke-width="3.2"></path><path d="M 1388 308 L 1404 304 M 1388 322 L 1404 318" stroke-width="2"></path>
  <rect x="1320" y="414" width="32" height="38" rx="6" stroke-width="2.6"></rect>
  <path d="M 236 546 A 160 144 0 0 1 564 546" stroke-width="3" opacity="0.7"></path><path d="M 1016 546 A 160 144 0 0 1 1344 546" stroke-width="3" opacity="0.7"></path>
</g>
<g stroke="currentColor" fill="none" stroke-linecap="round" opacity="0.45" filter="url(#rgh2)">
  <path d="M 204 554 L 182 538 Q 166 526 164 478 L 162 426 Q 162 396 184 388 Q 320 374 470 364 Q 550 354 590 346 L 690 204 Q 880 186 1130 186 L 1334 194 L 1392 188 L 1400 214 Q 1412 246 1414 322 L 1410 464 Q 1407 534 1394 552 L 1372 560 L 1330 564 A 150 132 0 0 0 1030 564 L 550 564 A 150 132 0 0 0 250 564 Z" stroke-width="2.2"></path>
</g>
</svg>