<svg color="#8FCF9D" xmlns="http://www.w3.org/2000/svg" width="1600" height="820" viewBox="0 0 1600 820">
<defs>
  <filter id="rgh" x="-5%" y="-5%" width="110%" height="110%">
    <feTurbulence type="fractalNoise" baseFrequency="0.011 0.017" numOctaves="2" seed="23" result="n"></feTurbulence>
    <feDisplacementMap in="SourceGraphic" in2="n" scale="7"></feDisplacementMap>
  </filter>
  <filter id="rgh2" x="-5%" y="-5%" width="110%" height="110%">
    <feTurbulence type="fractalNoise" baseFrequency="0.013 0.019" numOctaves="2" seed="37" result="n"></feTurbulence>
    <feDisplacementMap in="SourceGraphic" in2="n" scale="10"></feDisplacementMap>
  </filter>
  <filter id="rgh3" x="-5%" y="-5%" width="110%" height="110%">
    <feTurbulence type="fractalNoise" baseFrequency="0.009 0.014" numOctaves="2" seed="61" result="n"></feTurbulence>
    <feDisplacementMap in="SourceGraphic" in2="n" scale="5"></feDisplacementMap>
  </filter>
  <pattern id="hL" width="12" height="12" patternUnits="userSpaceOnUse" patternTransform="rotate(-38)">
    <line x1="0" y1="0" x2="0" y2="12" stroke="currentColor" stroke-width="2"></line>
  </pattern>
  <pattern id="hD" width="8" height="8" patternUnits="userSpaceOnUse" patternTransform="rotate(-38)">
    <line x1="0" y1="0" x2="0" y2="8" stroke="currentColor" stroke-width="2.6"></line>
  </pattern>
  <clipPath id="glassClip">
    <path d="M 596 350 L 678 212 Q 850 198 1130 198 L 1350 206 Q 1372 210 1374 238 Q 1374 282 1368 312 L 1180 330 L 1160 342 L 596 350 Z"></path>
  </clipPath>
  <g id="wheel">
    <circle r="116" fill="url(#hD)" fill-opacity="0.5"></circle>
    <circle r="116" fill="none" stroke="currentColor" stroke-width="5"></circle>
    <path d="M -76 -66 A 100 100 0 0 1 76 -66" fill="none" stroke="currentColor" stroke-width="3"></path>
    <circle r="68" fill="none" stroke="currentColor" stroke-width="4.5"></circle>
    <g stroke="currentColor" stroke-width="6" stroke-linecap="round">
      <g id="spk"><path d="M 12 -8 L 60 -26 M 12 8 L 60 26" fill="none"></path></g>
      <use href="#spk" transform="rotate(36)"></use>
      <use href="#spk" transform="rotate(72)"></use>
      <use href="#spk" transform="rotate(108)"></use>
      <use href="#spk" transform="rotate(144)"></use>
    </g>
    <circle r="16" fill="none" stroke="currentColor" stroke-width="3.5"></circle>
  </g>
</defs>


<g stroke="currentColor" stroke-width="2" fill="none" opacity="0.34" filter="url(#rgh2)" stroke-linecap="round">
  <line x1="100" y1="584" x2="1520" y2="584"></line>
  <line x1="90" y1="700" x2="1510" y2="700"></line>
  <line x1="130" y1="706" x2="1470" y2="703" stroke-width="1.4"></line>
  <circle cx="408" cy="584" r="128" stroke-width="1.8"></circle>
  <circle cx="414" cy="586" r="121" stroke-width="1.2"></circle>
  <circle cx="1160" cy="584" r="128" stroke-width="1.8"></circle>
  <circle cx="1154" cy="582" r="121" stroke-width="1.2"></circle>
  <line x1="408" y1="446" x2="408" y2="732" stroke-width="1.4"></line>
  <line x1="1160" y1="446" x2="1160" y2="732" stroke-width="1.4"></line>
  <line x1="60" y1="356" x2="1540" y2="320" stroke-width="1.4"></line>
  <line x1="636" y1="198" x2="488" y2="234" stroke-width="1.6"></line>
  <line x1="1400" y1="194" x2="1548" y2="186" stroke-width="1.6"></line>
  <line x1="148" y1="436" x2="116" y2="552" stroke-width="1.6"></line>
  <line x1="408" y1="748" x2="1160" y2="748"></line>
  <path d="M 426 741 L 408 748 L 426 755"></path>
  <path d="M 1142 741 L 1160 748 L 1142 755"></path>
  <line x1="408" y1="736" x2="408" y2="760" stroke-width="1.4"></line>
  <line x1="1160" y1="736" x2="1160" y2="760" stroke-width="1.4"></line>
</g>


<g filter="url(#rgh2)">
  <rect x="240" y="698" width="1180" height="20" fill="url(#hD)" opacity="0.7"></rect>
  <rect x="308" y="694" width="200" height="14" fill="url(#hD)" opacity="0.9"></rect>
  <rect x="1060" y="694" width="200" height="14" fill="url(#hD)" opacity="0.9"></rect>
</g>


<g filter="url(#rgh3)">
  <path d="M 206 548 L 184 536 Q 170 524 168 484 L 166 428 Q 166 396 186 388 Q 300 376 440 368 Q 540 360 585 352 L 672 208 Q 850 190 1130 190 L 1352 198 L 1428 192 L 1436 218 Q 1446 250 1448 330 L 1443 470 Q 1440 536 1426 552 L 1402 560 L 1314 564 A 154 138 0 0 0 1006 564 L 562 564 A 154 138 0 0 0 254 564 Z" fill="none"></path>
</g>


<g filter="url(#rgh3)">
  <path d="M 596 350 L 678 212 Q 850 198 1130 198 L 1350 206 Q 1372 210 1374 238 Q 1374 282 1368 312 L 1180 330 L 1160 342 L 596 350 Z" fill="currentColor" opacity="0.08"></path>
  <g clip-path="url(#glassClip)">
    <rect x="586" y="192" width="800" height="56" fill="url(#hD)" opacity="0.5"></rect>
    <path d="M 776 192 L 878 192 L 700 356 L 634 356 Z" fill="currentColor" opacity="0.14"></path>
    <path d="M 926 192 L 964 192 L 788 356 L 760 356 Z" fill="currentColor" opacity="0.1"></path>
    <rect x="586" y="296" width="800" height="58" fill="url(#hL)" opacity="0.4"></rect>
  </g>
</g>


<g filter="url(#rgh2)">
  <path d="M 616 564 L 616 470 Q 830 460 1004 466 L 1004 564 Z" fill="url(#hL)" opacity="0.5"></path>
  <path d="M 172 424 L 292 410 L 288 540 L 206 544 Z" fill="url(#hL)" opacity="0.55"></path>
  <path d="M 1330 378 L 1440 370 L 1436 540 L 1340 546 Z" fill="url(#hL)" opacity="0.45"></path>
  <path d="M 602 356 Q 800 344 1150 346 L 1150 360 Q 800 358 602 370 Z" fill="url(#hD)" opacity="0.32"></path>
  <path d="M 690 216 Q 850 198 1128 198 L 1344 206 L 1342 218 Q 850 210 694 228 Z" fill="url(#hL)" opacity="0.35"></path>
  <path d="M 292 558 A 134 118 0 0 1 526 558" fill="none" stroke="url(#hD)" stroke-width="32" opacity="0.55"></path>
  <path d="M 1044 558 A 134 118 0 0 1 1278 558" fill="none" stroke="url(#hD)" stroke-width="32" opacity="0.55"></path>
  <line x1="622" y1="562" x2="1002" y2="562" stroke="currentColor" stroke-width="10" opacity="0.6"></line>
</g>


<g filter="url(#rgh)">
  <use href="#wheel" transform="translate(408,584)"></use>
  <use href="#wheel" transform="translate(1160,584)"></use>
</g>


<g stroke="currentColor" fill="none" stroke-linecap="round" stroke-linejoin="round" filter="url(#rgh)">
  <path d="M 206 548 L 184 536 Q 170 524 168 484 L 166 428 Q 166 396 186 388 Q 300 376 440 368 Q 540 360 585 352 L 672 208 Q 850 190 1130 190 L 1352 198 L 1428 192 L 1436 218 Q 1446 250 1448 330 L 1443 470 Q 1440 536 1426 552 L 1402 560 L 1314 564 A 154 138 0 0 0 1006 564 L 562 564 A 154 138 0 0 0 254 564 Z" stroke-width="7"></path>
  <path d="M 596 350 L 678 212 Q 850 198 1130 198 L 1350 206 Q 1372 210 1374 238 Q 1374 282 1368 312 L 1180 330 L 1160 342 L 596 350 Z" stroke-width="4.5"></path>
  <path d="M 606 354 L 1152 348 L 1174 334 L 1362 318" stroke-width="2.2" stroke="currentColor"></path>
  <line x1="852" y1="202" x2="862" y2="348" stroke-width="4"></line>
  <line x1="870" y1="202" x2="880" y2="347" stroke-width="2.4"></line>
  <line x1="1118" y1="199" x2="1130" y2="342" stroke-width="4"></line>
  <line x1="1138" y1="199" x2="1146" y2="336" stroke-width="2.4"></line>
  <path d="M 236 392 Q 420 376 580 358" stroke-width="3.5"></path>
  <path d="M 192 396 L 320 384 Q 352 388 344 404 L 300 414 Q 240 418 202 424 Z" stroke-width="3.5" fill="none"></path>
  <path d="M 210 404 L 330 392" stroke-width="2"></path>
  <path d="M 178 400 L 179 468 M 190 398 L 191 466" stroke-width="2.4"></path>
  <path d="M 174 486 L 284 484" stroke-width="3"></path>
  <rect x="192" y="450" width="48" height="26" rx="6" stroke-width="2.6"></rect>
  <path d="M 692 360 L 688 556" stroke-width="3.2"></path>
  <path d="M 926 364 L 922 558" stroke-width="3.2"></path>
  <path d="M 1152 366 L 1149 446" stroke-width="3.2"></path>
  <rect x="754" y="388" width="58" height="13" rx="6" stroke-width="3"></rect>
  <rect x="984" y="390" width="58" height="13" rx="6" stroke-width="3"></rect>
  <rect x="1204" y="394" width="58" height="13" rx="6" stroke-width="3"></rect>
  <path d="M 596 334 L 584 316 L 630 308 L 642 332 L 612 342 Z" stroke-width="3.5" fill="none"></path>
  <path d="M 608 342 L 598 350" stroke-width="3"></path>
  <rect x="610" y="566" width="398" height="14" rx="7" stroke-width="3" fill="currentColor" fill-opacity="0.9"></rect>
  <path d="M 690 164 L 1300 164" stroke-width="5"></path>
  <path d="M 706 164 L 716 188 M 944 164 L 948 186 M 1286 164 L 1278 190" stroke-width="3.5"></path>
  <path d="M 1338 216 L 1424 208" stroke-width="3"></path>
  <path d="M 1398 296 L 1428 288 L 1432 372 L 1404 378 Z" stroke-width="3.2" fill="none"></path>
  <path d="M 1406 310 L 1422 306 M 1406 330 L 1422 326 M 1406 350 L 1422 346" stroke-width="2"></path>
  <rect x="1332" y="424" width="32" height="38" rx="6" stroke-width="2.6"></rect>
  <path d="M 556 540 L 588 542 L 592 578 L 560 576 Z" stroke-width="3" fill="currentColor" fill-opacity="0.9"></path>
  <path d="M 1308 540 L 1340 542 L 1344 578 L 1312 576 Z" stroke-width="3" fill="currentColor" fill-opacity="0.9"></path>
  <path d="M 240 548 A 164 148 0 0 1 576 548" stroke-width="3" opacity="0.7"></path>
  <path d="M 992 548 A 164 148 0 0 1 1328 548" stroke-width="3" opacity="0.7"></path>
</g>


<g stroke="currentColor" fill="none" stroke-linecap="round" opacity="0.45" filter="url(#rgh2)">
  <path d="M 206 548 L 184 536 Q 170 524 168 484 L 166 428 Q 166 396 186 388 Q 300 376 440 368 Q 540 360 585 352 L 672 208 Q 850 190 1130 190 L 1352 198 L 1428 192 L 1436 218 Q 1446 250 1448 330 L 1443 470 Q 1440 536 1426 552" stroke-width="2.2"></path>
  <path d="M 596 350 L 678 212 Q 850 198 1130 198 L 1350 206" stroke-width="1.8"></path>
</g>
</svg>