<svg color="#8FCF9D" xmlns="http://www.w3.org/2000/svg" width="1600" height="820" viewBox="0 0 1600 820">
<style>
  @keyframes h06spin { to { transform: rotate(-360deg); } }
  .h06w { transform-box: view-box; animation: h06spin 1.05s linear infinite; }
  @media (prefers-reduced-motion: reduce) { .h06w { animation: none; } }
</style>

<defs>
  <filter id="rgh" x="-5%" y="-5%" width="110%" height="110%"><feTurbulence type="fractalNoise" baseFrequency="0.011 0.017" numOctaves="2" seed="151" result="n"></feTurbulence><feDisplacementMap in="SourceGraphic" in2="n" scale="7"></feDisplacementMap></filter>
  <filter id="rgh2" x="-5%" y="-5%" width="110%" height="110%"><feTurbulence type="fractalNoise" baseFrequency="0.013 0.019" numOctaves="2" seed="155" result="n"></feTurbulence><feDisplacementMap in="SourceGraphic" in2="n" scale="10"></feDisplacementMap></filter>
  <filter id="rgh3" x="-5%" y="-5%" width="110%" height="110%"><feTurbulence type="fractalNoise" baseFrequency="0.009 0.014" numOctaves="2" seed="160" result="n"></feTurbulence><feDisplacementMap in="SourceGraphic" in2="n" scale="5"></feDisplacementMap></filter>
  <pattern id="hL" width="12" height="12" patternUnits="userSpaceOnUse" patternTransform="rotate(-38)"><line x1="0" y1="0" x2="0" y2="12" stroke="currentColor" stroke-width="2"></line></pattern>
  <pattern id="hD" width="8" height="8" patternUnits="userSpaceOnUse" patternTransform="rotate(-38)"><line x1="0" y1="0" x2="0" y2="8" stroke="currentColor" stroke-width="2.6"></line></pattern>
  <clipPath id="glassClip"><path d="M 630 340 L 706 214 Q 880 196 1136 196 L 1284 202 Q 1310 206 1312 234 L 1308 306 L 1160 318 L 1148 330 L 630 340 Z"></path></clipPath>
  <g id="wheel">
    <circle r="116" fill="url(#hD)" fill-opacity="0.5"></circle>
    <circle r="116" fill="none" stroke="currentColor" stroke-width="5"></circle>
    <path d="M -76 -64 A 100 100 0 0 1 76 -64" fill="none" stroke="currentColor" stroke-width="3" opacity="0.6"></path>
    <circle r="70" fill="none" stroke="currentColor" stroke-width="4.5"></circle>
    <g stroke="currentColor" stroke-width="6" stroke-linecap="round">
      <g id="spk"><path d="M 18 0 L 62 0" fill="none"></path></g><use href="#spk" transform="rotate(51.4)"></use><use href="#spk" transform="rotate(102.9)"></use><use href="#spk" transform="rotate(154.3)"></use><use href="#spk" transform="rotate(205.7)"></use><use href="#spk" transform="rotate(257.1)"></use><use href="#spk" transform="rotate(308.6)"></use></g>
    <circle r="15" fill="none" stroke="currentColor" stroke-width="3"></circle>
  </g>
</defs>
<g stroke="currentColor" stroke-width="2" fill="none" opacity="0.34" filter="url(#rgh2)" stroke-linecap="round">
  <line x1="100" y1="584" x2="1520" y2="584"></line>
  <line x1="90" y1="700" x2="1520" y2="700"></line>
  <line x1="130" y1="706" x2="1480" y2="703" stroke-width="1.4"></line>
  <circle cx="410" cy="584" r="128" stroke-width="1.8"></circle><circle cx="416" cy="586" r="121" stroke-width="1.2"></circle>
  <circle cx="1190" cy="584" r="128" stroke-width="1.8"></circle><circle cx="1184" cy="582" r="121" stroke-width="1.2"></circle>
  <line x1="410" y1="454" x2="410" y2="732" stroke-width="1.4"></line>
  <line x1="1190" y1="454" x2="1190" y2="732" stroke-width="1.4"></line>
  <line x1="60" y1="344" x2="1540" y2="316" stroke-width="1.4"></line>
  
  <line x1="410" y1="748" x2="1190" y2="748"></line>
  <path d="M 428 741 L 410 748 L 428 755"></path><path d="M 1172 741 L 1190 748 L 1172 755"></path>
  <line x1="410" y1="736" x2="410" y2="760" stroke-width="1.4"></line><line x1="1190" y1="736" x2="1190" y2="760" stroke-width="1.4"></line>
</g>
<g filter="url(#rgh2)">
  <rect x="250" y="698" width="1110" height="20" fill="url(#hD)" opacity="0.7"></rect>
  <rect x="310" y="694" width="200" height="14" fill="url(#hD)" opacity="0.9"></rect>
  <rect x="1090" y="694" width="200" height="14" fill="url(#hD)" opacity="0.9"></rect>
</g>
<g filter="url(#rgh3)">
  <path d="M 630 340 L 706 214 Q 880 196 1136 196 L 1284 202 Q 1310 206 1312 234 L 1308 306 L 1160 318 L 1148 330 L 630 340 Z" fill="currentColor" opacity="0.08"></path>
  <g clip-path="url(#glassClip)"><rect x="480" y="192" width="940" height="52" fill="url(#hD)" opacity="0.5"></rect>
    <path d="M 800 192 L 896 192 L 630 336 L 568 336 Z" fill="currentColor" opacity="0.14"></path>
    <path d="M 950 192 L 986 192 L 784 336 L 758 336 Z" fill="currentColor" opacity="0.1"></path>
    <rect x="480" y="278" width="940" height="58" fill="url(#hL)" opacity="0.4"></rect></g>
</g>
<g filter="url(#rgh2)"><path d="M 620 562 L 620 464 Q 840 454 1040 460 L 1040 562 Z" fill="url(#hL)" opacity="0.5"></path>
  <path d="M 174 396 L 290 388 L 286 540 L 200 544 Z" fill="url(#hL)" opacity="0.55"></path>
  <path d="M 1248 366 L 1356 358 L 1352 538 L 1256 544 Z" fill="url(#hL)" opacity="0.45"></path>
  <path d="M 636 346 Q 850 334 1148 336 L 1148 350 Q 850 348 636 360 Z" fill="url(#hD)" opacity="0.32"></path>
  <path d="M 300 556 A 128 110 0 0 1 522 556" fill="none" stroke="url(#hD)" stroke-width="30" opacity="0.55"></path>
  <path d="M 1080 556 A 128 110 0 0 1 1302 556" fill="none" stroke="url(#hD)" stroke-width="30" opacity="0.55"></path>
  <line x1="624" y1="558" x2="1044" y2="558" stroke="currentColor" stroke-width="10" opacity="0.6"></line></g>
<g filter="url(#rgh)"><g class="h06w" style="transform-origin:410px 584px"><use href="#wheel" transform="translate(410,584)"></use></g><g class="h06w" style="transform-origin:1190px 584px"><use href="#wheel" transform="translate(1190,584)"></use></g></g>
<g stroke="currentColor" fill="none" stroke-linecap="round" stroke-linejoin="round" filter="url(#rgh)">
  <path d="M 196 552 L 178 540 Q 168 530 168 470 L 168 400 Q 168 372 190 368 L 300 362 Q 420 354 520 348 L 620 342 L 700 208 Q 880 190 1140 190 L 1300 196 Q 1330 200 1338 214 L 1352 232 Q 1362 280 1362 340 L 1358 470 Q 1356 534 1342 550 L 1318 558 L 1336 562 A 146 128 0 0 0 1044 562 L 556 562 A 146 128 0 0 0 264 562 Z" stroke-width="7"></path>
  <path d="M 630 340 L 706 214 Q 880 196 1136 196 L 1284 202 Q 1310 206 1312 234 L 1308 306 L 1160 318 L 1148 330 L 630 340 Z" stroke-width="4.5"></path>
  <path d="M 640 344 L 1150 338 L 1162 326 L 1304 312" stroke-width="2.4" opacity="0.7"></path>
  <line x1="856" y1="198" x2="864" y2="336" stroke-width="5"></line><line x1="876" y1="198" x2="884" y2="335" stroke-width="2.6"></line>
  <line x1="1096" y1="196" x2="1104" y2="330" stroke-width="4"></line>
  <line x1="1240" y1="198" x2="1248" y2="322" stroke-width="5"></line><line x1="1260" y1="200" x2="1266" y2="320" stroke-width="2.6"></line>
  <path d="M 260 372 L 616 350" stroke-width="3"></path>
  <path d="M 176 380 L 177 456 M 188 378 L 189 454 M 200 377 L 201 453 M 212 376 L 213 452" stroke-width="2.6"></path>
  <rect x="222" y="380" width="72" height="22" rx="5" stroke-width="3"></rect>
  <path d="M 174 474 L 268 472" stroke-width="3"></path>
  <path d="M 720 346 L 716 556" stroke-width="3.2"></path><path d="M 952 348 L 948 556" stroke-width="3.2"></path>
  <rect x="864" y="376" width="54" height="13" rx="6" stroke-width="3"></rect><rect x="972" y="378" width="54" height="13" rx="6" stroke-width="3"></rect>
  <path d="M 626 326 L 614 308 L 660 300 L 672 324 L 642 334 Z" stroke-width="3.5"></path><path d="M 638 334 L 628 342" stroke-width="3"></path>
  <path d="M 620 544 L 1046 544" stroke-width="2.6" opacity="0.8"></path>
  <rect x="1326" y="298" width="20" height="46" rx="4" stroke-width="3"></rect>
  <path d="M 1338 226 L 1300 210" stroke-width="2.4" opacity="0.7"></path>
  <path d="M 252 548 A 156 136 0 0 1 568 548" stroke-width="3" opacity="0.7"></path><path d="M 1032 548 A 156 136 0 0 1 1348 548" stroke-width="3" opacity="0.7"></path>
</g>
<g stroke="currentColor" fill="none" stroke-linecap="round" opacity="0.45" filter="url(#rgh2)">
  <path d="M 196 552 L 178 540 Q 168 530 168 470 L 168 400 Q 168 372 190 368 L 300 362 Q 420 354 520 348 L 620 342 L 700 208 Q 880 190 1140 190 L 1300 196 Q 1330 200 1338 214 L 1352 232 Q 1362 280 1362 340 L 1358 470 Q 1356 534 1342 550 L 1318 558 L 1336 562 A 146 128 0 0 0 1044 562 L 556 562 A 146 128 0 0 0 264 562 Z" stroke-width="2.2"></path>
</g>
</svg>