<svg color="#D6B98C" xmlns="http://www.w3.org/2000/svg" width="1600" height="820" viewBox="0 0 1600 820">
<defs>
  <filter id="rgh" x="-5%" y="-5%" width="110%" height="110%"><feTurbulence type="fractalNoise" baseFrequency="0.011 0.017" numOctaves="2" seed="163" result="n"></feTurbulence><feDisplacementMap in="SourceGraphic" in2="n" scale="7"></feDisplacementMap></filter>
  <filter id="rgh2" x="-5%" y="-5%" width="110%" height="110%"><feTurbulence type="fractalNoise" baseFrequency="0.013 0.019" numOctaves="2" seed="167" result="n"></feTurbulence><feDisplacementMap in="SourceGraphic" in2="n" scale="10"></feDisplacementMap></filter>
  <filter id="rgh3" x="-5%" y="-5%" width="110%" height="110%"><feTurbulence type="fractalNoise" baseFrequency="0.009 0.014" numOctaves="2" seed="172" result="n"></feTurbulence><feDisplacementMap in="SourceGraphic" in2="n" scale="5"></feDisplacementMap></filter>
  <pattern id="hL" width="12" height="12" patternUnits="userSpaceOnUse" patternTransform="rotate(-38)"><line x1="0" y1="0" x2="0" y2="12" stroke="currentColor" stroke-width="2"></line></pattern>
  <pattern id="hD" width="8" height="8" patternUnits="userSpaceOnUse" patternTransform="rotate(-38)"><line x1="0" y1="0" x2="0" y2="8" stroke="currentColor" stroke-width="2.6"></line></pattern>
  <clipPath id="glassClip"><path d="M 620 398 L 772 306 Q 860 292 918 292 Q 1040 298 1130 316 L 1216 336 Q 1180 362 1100 372 L 900 390 Q 740 398 620 398 Z"></path></clipPath>
  <g id="wheel">
    <circle r="122" fill="url(#hD)" fill-opacity="0.5"></circle>
    <circle r="122" fill="none" stroke="currentColor" stroke-width="5"></circle>
    <path d="M -82 -70 A 106 106 0 0 1 82 -70" fill="none" stroke="currentColor" stroke-width="3" opacity="0.6"></path>
    <circle r="92" fill="none" stroke="currentColor" stroke-width="4.5"></circle>
    <g stroke="currentColor" stroke-width="5.5" stroke-linecap="round">
      <g id="spk"><path d="M 20 -12 L 86 -31.200000000000003 M 20 12 L 86 31.200000000000003" fill="none"></path></g><use href="#spk" transform="rotate(72)"></use><use href="#spk" transform="rotate(144)"></use><use href="#spk" transform="rotate(216)"></use><use href="#spk" transform="rotate(288)"></use></g>
    <circle r="15" fill="none" stroke="currentColor" stroke-width="3"></circle>
  </g>
</defs>
<g stroke="currentColor" stroke-width="2" fill="none" opacity="0.34" filter="url(#rgh2)" stroke-linecap="round">
  <line x1="100" y1="578" x2="1520" y2="578"></line>
  <line x1="90" y1="700" x2="1520" y2="700"></line>
  <line x1="130" y1="706" x2="1480" y2="703" stroke-width="1.4"></line>
  <circle cx="390" cy="578" r="134" stroke-width="1.8"></circle><circle cx="396" cy="580" r="127" stroke-width="1.2"></circle>
  <circle cx="1210" cy="578" r="134" stroke-width="1.8"></circle><circle cx="1204" cy="576" r="127" stroke-width="1.2"></circle>
  <line x1="390" y1="448" x2="390" y2="732" stroke-width="1.4"></line>
  <line x1="1210" y1="448" x2="1210" y2="732" stroke-width="1.4"></line>
  <line x1="60" y1="410" x2="1560" y2="330" stroke-width="1.4"></line>
  
  <line x1="390" y1="748" x2="1210" y2="748"></line>
  <path d="M 408 741 L 390 748 L 408 755"></path><path d="M 1192 741 L 1210 748 L 1192 755"></path>
  <line x1="390" y1="736" x2="390" y2="760" stroke-width="1.4"></line><line x1="1210" y1="736" x2="1210" y2="760" stroke-width="1.4"></line>
</g>
<g filter="url(#rgh2)">
  <rect x="230" y="698" width="1150" height="20" fill="url(#hD)" opacity="0.7"></rect>
  <rect x="290" y="694" width="200" height="14" fill="url(#hD)" opacity="0.9"></rect>
  <rect x="1110" y="694" width="200" height="14" fill="url(#hD)" opacity="0.9"></rect>
</g>
<g filter="url(#rgh3)">
  <path d="M 620 398 L 772 306 Q 860 292 918 292 Q 1040 298 1130 316 L 1216 336 Q 1180 362 1100 372 L 900 390 Q 740 398 620 398 Z" fill="currentColor" opacity="0.08"></path>
  <g clip-path="url(#glassClip)"><rect x="480" y="288" width="940" height="52" fill="url(#hD)" opacity="0.5"></rect>
    <path d="M 820 288 L 916 288 L 650 396 L 588 396 Z" fill="currentColor" opacity="0.14"></path>
    <path d="M 980 288 L 1016 288 L 814 396 L 788 396 Z" fill="currentColor" opacity="0.1"></path>
    <rect x="480" y="338" width="940" height="58" fill="url(#hL)" opacity="0.4"></rect></g>
</g>
<g filter="url(#rgh2)"><path d="M 600 584 L 606 478 Q 830 470 1050 478 L 1046 584 Z" fill="url(#hL)" opacity="0.5"></path>
  <path d="M 176 440 L 290 428 L 286 528 L 206 534 Z" fill="url(#hL)" opacity="0.55"></path>
  <path d="M 1300 400 L 1368 396 L 1362 528 L 1310 534 Z" fill="url(#hL)" opacity="0.45"></path>
  <path d="M 626 404 Q 850 392 1120 400 L 1120 414 Q 850 406 626 418 Z" fill="url(#hD)" opacity="0.32"></path>
  <path d="M 270 576 A 140 112 0 0 1 512 576" fill="none" stroke="url(#hD)" stroke-width="32" opacity="0.55"></path>
  <path d="M 1090 576 A 140 112 0 0 1 1332 576" fill="none" stroke="url(#hD)" stroke-width="32" opacity="0.55"></path>
  <line x1="604" y1="580" x2="1048" y2="580" stroke="currentColor" stroke-width="12" opacity="0.7"></line></g>
<g filter="url(#rgh)"><use href="#wheel" transform="translate(390,578)"></use><use href="#wheel" transform="translate(1210,578)"></use></g>
<g stroke="currentColor" fill="none" stroke-linecap="round" stroke-linejoin="round" filter="url(#rgh)">
  <path d="M 206 414 Q 350 396 480 392 Q 560 392 604 396 L 764 300 Q 860 282 920 282 Q 1060 288 1160 308 Q 1250 324 1320 338 L 1362 342 L 1370 372 Q 1382 430 1376 484 Q 1372 544 1354 572 L 1368 584 A 158 136 0 0 0 1052 584 L 548 584 A 158 136 0 0 0 232 584 L 198 576 L 176 548 Q 162 520 164 468 L 168 434 Q 172 416 206 414 Z" stroke-width="7"></path>
  <path d="M 620 398 L 772 306 Q 860 292 918 292 Q 1040 298 1130 316 L 1216 336 Q 1180 362 1100 372 L 900 390 Q 740 398 620 398 Z" stroke-width="4.5"></path>
  <path d="M 240 440 Q 600 420 900 428 Q 1150 436 1330 460" stroke-width="3.4"></path>
  <path d="M 300 516 Q 700 502 1240 516" stroke-width="2.6" opacity="0.8"></path>
  <line x1="884" y1="294" x2="896" y2="392" stroke-width="4"></line><line x1="1080" y1="306" x2="1096" y2="370" stroke-width="3.4"></line>
  <path d="M 800 410 L 852 408" stroke-width="4"></path><path d="M 1002 416 L 1050 414" stroke-width="4"></path>
  <path d="M 636 392 L 626 376 L 668 368 L 680 390 L 652 398 Z" stroke-width="3.4"></path>
  <path d="M 230 402 Q 350 388 470 384" stroke-width="2.4" opacity="0.8"></path>
  <path d="M 176 434 Q 240 424 300 420 L 296 440 Q 240 444 184 452 Z" stroke-width="3.2"></path><path d="M 194 438 L 286 428" stroke-width="2"></path>
  <path d="M 170 470 L 262 468" stroke-width="3"></path><path d="M 178 500 L 250 498" stroke-width="2.4"></path>
  <path d="M 586 468 L 600 464 M 592 486 L 606 482" stroke-width="3"></path>
  <path d="M 1298 350 L 1362 354" stroke-width="2.6"></path>
  <path d="M 1330 366 L 1368 362 L 1366 384 L 1330 386 Z" stroke-width="3"></path>
  <path d="M 1336 576 L 1360 548 M 1352 576 L 1372 552" stroke-width="2.6" opacity="0.8"></path>
  <path d="M 254 566 A 156 128 0 0 1 526 566" stroke-width="3" opacity="0.7"></path><path d="M 1074 566 A 156 128 0 0 1 1346 566" stroke-width="3" opacity="0.7"></path>
</g>
<g stroke="currentColor" fill="none" stroke-linecap="round" opacity="0.45" filter="url(#rgh2)">
  <path d="M 206 414 Q 350 396 480 392 Q 560 392 604 396 L 764 300 Q 860 282 920 282 Q 1060 288 1160 308 Q 1250 324 1320 338 L 1362 342 L 1370 372 Q 1382 430 1376 484 Q 1372 544 1354 572 L 1368 584 A 158 136 0 0 0 1052 584 L 548 584 A 158 136 0 0 0 232 584 L 198 576 L 176 548 Q 162 520 164 468 L 168 434 Q 172 416 206 414 Z" stroke-width="2.2"></path>
</g>
</svg>